<?xml version="1.0" encoding="utf-8"?>
<!-- Generator: Adobe Illustrator 16.0.4, SVG Export Plug-In . SVG Version: 6.00 Build 0)  -->
<!DOCTYPE svg PUBLIC "-//W3C//DTD SVG 1.1//EN" "http://www.w3.org/Graphics/SVG/1.1/DTD/svg11.dtd">
<svg version="1.1" id="Ebene_1" xmlns="http://www.w3.org/2000/svg" xmlns:xlink="http://www.w3.org/1999/xlink" x="0px" y="0px"
	 width="595.279px" height="595.28px" viewBox="0 123.305 595.279 595.28" enable-background="new 0 123.305 595.279 595.28"
	 xml:space="preserve">
<rect x="0" y="123.305" fill="none" width="595.279" height="595.28"/>
<g id="hintergrund" display="none">
	<path display="inline" fill="#9E005D" stroke="#000000" stroke-miterlimit="10" d="M-115.567,126.303v705.396h19661.969V126.303
		H-115.567z M429.288,377.062h305.817H429.288z"/>
</g>
<g id="raster" display="none">
	<path display="inline" fill="none" stroke="#000000" stroke-miterlimit="10" d="M403.395,123.578v708.667h708.667V123.578H403.395
		L403.395,123.578z M429.288,377.062h305.817H429.288z"/>
</g>
<path fill="#CDCDD2" stroke="#E9006F" stroke-width="4" stroke-miterlimit="10" d="M473.171,575.217l-13.355-0.546
	c0,0-39.794-8.449-70.321-24.53v-0.272c0-0.272-5.179-16.081-22.078-15.536h-0.272c-5.179-5.179-9.268-10.63-10.902-16.627
	l-0.272-8.449l14.718,1.09c31.345,4.906,63.508-17.989,63.508-17.989c-16.081-4.905-11.447-16.898-2.453-42.247
	c9.268-25.349-10.357-53.15-10.357-53.15c14.446-2.453,13.355-33.798,0-64.053c-13.355-30.254-23.985-83.95-23.985-83.95
	c-27.802-73.047-84.495-67.869-84.495-67.869h-4.906h-9.54h-1.362h-9.54h-4.906c0,0-56.693-5.179-84.494,67.869
	c0,0-10.631,53.968-23.986,83.95c-13.355,30.255-14.445,61.6,0,64.053c0,0-19.624,27.801-10.357,53.15
	c9.268,25.349,13.629,37.342-2.453,42.247c0,0,32.163,23.168,63.508,17.989l14.719-1.09l-0.272,8.449
	c-1.636,5.997-5.725,11.721-10.903,16.627h-0.272c-17.171-0.818-22.077,15.264-22.077,15.536v0.272
	c-30.527,16.081-70.322,24.53-70.322,24.53l-13.355,0.546c-81.77,10.902-77.136,85.312-77.136,85.312h505.334
	C550.307,660.529,554.668,586.119,473.171,575.217z"/>
</svg>
