<?xml version="1.0" encoding="utf-8"?>
<!-- Generator: Adobe Illustrator 16.0.4, SVG Export Plug-In . SVG Version: 6.00 Build 0)  -->
<!DOCTYPE svg PUBLIC "-//W3C//DTD SVG 1.1//EN" "http://www.w3.org/Graphics/SVG/1.1/DTD/svg11.dtd">
<svg version="1.1" id="Ebene_1" xmlns="http://www.w3.org/2000/svg" xmlns:xlink="http://www.w3.org/1999/xlink" x="0px" y="0px"
	 width="595.279px" height="595.28px" viewBox="0 123.305 595.279 595.28" enable-background="new 0 123.305 595.279 595.28"
	 xml:space="preserve">
<rect x="0" y="123.305" fill="none" width="595.279" height="595.28"/>
<g id="hintergrund" display="none">
	<path display="inline" fill="#9E005D" stroke="#000000" stroke-miterlimit="10" d="M-115.567,126.303v705.396h19661.969V126.303
		H-115.567z M429.288,377.062h305.817H429.288z"/>
</g>
<g id="raster" display="none">
	<path display="inline" fill="none" stroke="#000000" stroke-miterlimit="10" d="M403.395,123.578v708.667h708.667V123.578H403.395
		L403.395,123.578z M429.288,377.062h305.817H429.288z"/>
</g>
<path fill="#CDCDD2" stroke="#00AEEF" stroke-width="4" stroke-miterlimit="10" d="M294.914,191.991
	c29.164-14.719,47.153,9.812,47.153,9.812c40.885,3.543,40.885,35.433,40.885,35.433c28.074,12.811,4.634,49.879,4.634,49.879
	c6.269,15.809,3.543,27.256,3.543,27.256c-8.177,22.623-4.633,38.159-4.633,38.159c1.907-3.543,10.084-5.451,10.084-5.451
	c15.536,4.634-8.177,35.161-8.177,35.161c-4.634,10.63-5.451,17.716-5.451,17.716c0,13.628-11.72,13.628-11.72,13.628l-2.727,23.713
	c0,15.536-10.084,22.623-10.084,22.623c0,54.513,19.896,56.421,19.896,56.421c8.995,0,17.172,8.994,17.172,8.994
	c29.164,27.257,107.663,56.693,107.663,56.693c47.971,32.98,42.247,78.771,42.247,78.771H54.24c0,0-18.807-38.704,33.525-79.316
	c0,0,77.408-28.892,106.3-56.148c0,0,8.177-8.994,17.172-8.994c0,0,19.896-1.908,19.896-56.421c0,0-10.084-7.359-10.084-22.623
	l-2.727-23.713c0,0-11.72,0-11.72-13.628c0,0-0.817-7.086-5.451-17.716c0,0-23.713-30.527-8.177-35.161
	c0,0,8.177,1.908,10.085,5.451c0,0,3.543-15.536-4.634-38.159c0,0-2.726-11.448,3.543-27.256c0,0-23.713-37.341,4.634-49.879
	c0,0,0-31.89,40.885-35.434C247.761,201.803,266.023,177.272,294.914,191.991L294.914,191.991z"/>
</svg>
