<?xml version="1.0" encoding="utf-8"?>
<!-- Generator: Adobe Illustrator 15.0.0, SVG Export Plug-In . SVG Version: 6.00 Build 0)  -->
<!DOCTYPE svg PUBLIC "-//W3C//DTD SVG 1.1//EN" "http://www.w3.org/Graphics/SVG/1.1/DTD/svg11.dtd">
<svg version="1.1" id="Ebene_1" xmlns="http://www.w3.org/2000/svg" xmlns:xlink="http://www.w3.org/1999/xlink" x="0px" y="0px"
	 width="612px" height="612px" viewBox="10.8 207.7 612 612" enable-background="new 10.8 207.7 612 612" xml:space="preserve">
<g id="hintergrund" display="none">
	<path display="inline" fill="#9E005D" stroke="#000000" stroke-miterlimit="10" d="M-73.76,296.97V731.67h12115.393V296.97H-73.76z
		 M85.688,320.528l166.267,240.907L85.688,320.528z"/>
</g>
<g id="raster" display="none">
	<polygon display="inline" fill="none" stroke="#000000" stroke-miterlimit="10" points="245.879,295.111 245.879,552.633 
		251.954,561.435 245.879,552.633 245.879,731.918 682.686,731.918 682.686,295.111 	"/>
</g>
<circle fill="#F4A42E" cx="316.8" cy="513.7" r="306"/>
<g id="Ebene_3">
	<path fill="#FFFFFF" d="M209.923,627.024c0.496,14.135,0.868,27.029-0.744,38.188c-3.968,27.524-13.267,38.684-16.242,45.751
		c-0.868,2.231-1.116,4.092,0.496,5.083c5.083,3.348,39.676-0.495,60.754-12.398c22.441-12.646,32.98-26.285,45.255-51.578
		c54.43,12.15,143.577-4.092,201.23-46c89.519-64.969,60.506-167.258-27.4-233.839C409.542,324,330.439,315.693,250.715,324.992
		c-81.088,9.299-136.758,50.71-153,97.702C63.866,521.263,151.03,612.642,209.923,627.024z M225.669,605.079
		c-50.091-11.655-130.806-95.966-101.297-178.294c13.887-38.932,69.557-69.433,138.369-77.491
		c67.944-7.812,136.758,0.247,190.816,39.924c74.392,54.802,97.329,147.544,21.077,201.851
		c-49.099,35.088-135.89,45.008-182.261,35.088c-10.663,21.202-16.738,33.105-33.353,47.487
		c-15.994,13.639-29.385,19.714-33.849,16.986c-1.363-0.744-2.604-1.24-1.611-2.976c2.604-6.075,7.439-20.21,10.911-43.147
		C236.084,635.456,230.133,617.229,225.669,605.079z"/>
</g>
</svg>
